<?xml version="1.0" encoding="utf-8"?>
<!-- Generator: Adobe Illustrator 27.3.1, SVG Export Plug-In . SVG Version: 6.00 Build 0)  -->
<svg version="1.1" id="Laag_1" xmlns="http://www.w3.org/2000/svg" xmlns:xlink="http://www.w3.org/1999/xlink" x="0px" y="0px"
	 viewBox="0 0 500 200" style="enable-background:new 0 0 500 200;" xml:space="preserve">
<style type="text/css">
	.st0{display:none;}
	.st1{display:inline;}
	.st2{fill:#080808;}
</style>
<g class="st0">
	<path class="st1" d="M56.8,21.2v117.3h12v2H43.4v-2h11.5V23.2H42.6v-2H56.8z M100.1,142.1L55.8,21.2H71l36.7,99.2l34.7-99.2h2.1
		l-42.1,120.9H100.1z M170.3,21.2v2h-11.1v115.3h11.1v2h-39v-2H144V21.2H170.3z"/>
	<path d="M233.1,142.1c-8.1,0-15.3-1.6-21.6-4.7c-6.3-3.2-11.6-7.5-16-13.2c-4.4-5.6-7.7-12.1-9.9-19.5c-2.3-7.4-3.4-15.3-3.4-23.8
		c0-8.5,1.2-16.4,3.6-23.8c2.4-7.4,5.8-13.9,10.3-19.5c4.5-5.6,9.8-10,16.1-13.2c6.3-3.2,13.2-4.7,20.9-4.7c7.7,0,14.6,1.6,20.9,4.7
		c6.2,3.2,11.6,7.5,16.1,13.2c4.5,5.6,7.9,12.1,10.3,19.5c2.4,7.4,3.6,15.3,3.6,23.8c0,8.5-1.1,16.4-3.4,23.8
		c-2.3,7.4-5.6,13.9-9.9,19.5c-4.4,5.6-9.7,10-16,13.2C248.3,140.5,241.2,142.1,233.1,142.1z M233.1,140.2c6.9,0,12.5-1.7,16.8-5.1
		c4.3-3.4,7.6-8,9.9-13.7c2.3-5.7,3.8-12.1,4.7-19.2c0.8-7.1,1.3-14.2,1.3-21.4c0-7.2-0.5-14.3-1.5-21.4c-1-7-2.7-13.4-5.1-19.2
		c-2.4-5.7-5.7-10.3-9.9-13.7c-4.2-3.4-9.6-5.1-16.1-5.1c-6.5,0-11.9,1.7-16.1,5.1c-4.2,3.4-7.6,8-10,13.7
		c-2.4,5.7-4.1,12.1-5.1,19.2c-1,7.1-1.5,14.2-1.5,21.4c0,7.2,0.4,14.3,1.3,21.4c0.8,7.1,2.4,13.4,4.7,19.2
		c2.3,5.7,5.6,10.3,9.9,13.7C220.5,138.5,226.2,140.2,233.1,140.2z"/>
	<path d="M283.7,140.1c-8.1,0-15.3-1.6-21.6-4.7c-6.3-3.2-11.6-7.5-16-13.2c-4.4-5.6-7.7-12.1-9.9-19.5c-2.3-7.4-3.4-15.3-3.4-23.8
		c0-8.5,1.2-16.4,3.6-23.8c2.4-7.4,5.8-13.9,10.3-19.5c4.5-5.6,9.8-10,16.1-13.2c6.3-3.2,13.2-4.7,20.9-4.7c7.7,0,14.6,1.6,20.9,4.7
		c6.2,3.2,11.6,7.5,16.1,13.2c4.5,5.6,7.9,12.1,10.3,19.5c2.4,7.4,3.6,15.3,3.6,23.8c0,8.5-1.1,16.4-3.4,23.8
		c-2.3,7.4-5.6,13.9-9.9,19.5c-4.4,5.6-9.7,10-16,13.2C298.9,138.5,291.8,140.1,283.7,140.1z M283.7,138.2c6.9,0,12.5-1.7,16.8-5.1
		c4.3-3.4,7.6-8,9.9-13.7c2.3-5.7,3.8-12.1,4.7-19.2c0.8-7.1,1.3-14.2,1.3-21.4c0-7.2-0.5-14.3-1.5-21.4c-1-7-2.7-13.4-5.1-19.2
		c-2.4-5.7-5.7-10.3-9.9-13.7c-4.2-3.4-9.6-5.1-16.1-5.1c-6.5,0-11.9,1.7-16.1,5.1c-4.2,3.4-7.6,8-10,13.7
		c-2.4,5.7-4.1,12.1-5.1,19.2c-1,7.1-1.5,14.2-1.5,21.4c0,7.2,0.4,14.3,1.3,21.4c0.8,7.1,2.4,13.4,4.7,19.2
		c2.3,5.7,5.6,10.3,9.9,13.7C271.1,136.5,276.8,138.2,283.7,138.2z"/>
	<path class="st1" d="M311.8,140.5v-2h17.4V23.2h-17.4v-2h51.7v2h-19.1v115.3h19.1v2H311.8z"/>
	<path class="st1" d="M415.5,140.3c-7,0-13-1.1-17.9-3.3c-4.9-2.2-9-5.1-12.2-8.8l-8,11.4h-1.7v-32.7h1.9c0.9,4.5,2.3,8.7,4.1,12.5
		c1.9,3.8,4.3,7.1,7.2,9.9c3,2.8,6.5,5,10.7,6.6c4.1,1.6,9,2.3,14.5,2.3c5.6,0,10.5-1,14.7-2.9c4.2-2,7.4-4.8,9.7-8.6
		c2.3-3.8,3.4-8.4,3.4-13.8c0-4.7-1.2-8.6-3.5-11.8c-2.3-3.2-5.4-6-9.1-8.4c-3.8-2.4-8-4.6-12.5-6.6c-4.5-2-9.1-4.1-13.6-6.3
		c-4.6-2.2-8.7-4.8-12.5-7.7c-3.8-2.9-6.8-6.4-9.1-10.5c-2.3-4.1-3.5-9.1-3.5-15c0-5.8,1.5-11,4.5-15.4c3-4.4,7-7.9,12-10.3
		c5-2.5,10.5-3.7,16.5-3.7c5.3,0,10.1,0.8,14.5,2.5c4.4,1.7,8.2,4.3,11.3,7.8l7.9-10.3h1.7v32.7h-1.9c-1.1-6.9-3.1-12.7-6-17.1
		c-3-4.5-6.7-7.8-11.1-10c-4.4-2.2-9.4-3.3-14.9-3.3c-7.6,0-13.3,1.8-17.3,5.5c-3.9,3.7-5.9,8.5-5.9,14.6c0,4.2,1.1,7.8,3.4,10.7
		c2.3,2.9,5.2,5.5,8.9,7.7c3.7,2.2,7.8,4.3,12.2,6.3c4.5,2,8.9,4.1,13.4,6.4c4.5,2.3,8.6,5,12.3,8.2c3.7,3.1,6.7,6.9,8.9,11.3
		c2.3,4.4,3.4,9.8,3.4,16.1c0,6.9-1.5,12.9-4.5,18c-3,5.1-7.2,9.1-12.6,11.9C429.4,138.9,423,140.3,415.5,140.3z"/>
</g>
<g>
	<path class="st2" d="M60,178.7h1.5l5.2,18.5l5.6-17.4h1.2l5.6,17.4l5.2-18.5h1.5l-5.8,20.4h-1.5L72.9,182l-5.5,17.1h-1.5L60,178.7z
		"/>
	<path class="st2" d="M96.5,178.7h13.3v1.3H97.9v8.2h10.6v1.3H97.9v8.3h11.9v1.4H96.5V178.7z"/>
	<path class="st2" d="M121,178.7h5.4c6.7,0,10.4,3.7,10.4,10.4c0,6.4-3.7,10.1-10.4,10.1H121V178.7z M126.2,197.8
		c5.8,0,9.1-2.9,9.1-8.8c0-6-3-9-9-9h-3.9v17.8H126.2z"/>
	<path class="st2" d="M148.2,178.7h5.4c6.7,0,10.4,3.7,10.4,10.4c0,6.4-3.7,10.1-10.4,10.1h-5.4V178.7z M153.4,197.8
		c5.8,0,9.1-2.9,9.1-8.8c0-6-3-9-9-9h-3.9v17.8H153.4z"/>
	<path class="st2" d="M175.4,178.7h1.4v20.4h-1.4V178.7z"/>
	<path class="st2" d="M203.3,178.7v20.4h-1.6l-10.7-18.3v18.3h-1.4v-20.4h1.6l10.7,18.3v-18.3H203.3z"/>
	<path class="st2" d="M214.9,188.8c0-6.2,3.2-10.4,9.2-10.4c4,0,6.7,1.8,8.1,5.4l-1.3,0.5c-1.2-3.2-3.4-4.7-6.8-4.7
		c-5.1,0-7.8,3.5-7.8,9.1c0,5.2,2.3,9.2,7.6,9.2c3.6,0,6-1.8,7-5.2l0-2.9h-5.1v-1.2h6.5v10.4h-1.2l-0.1-3.9
		c-1.4,2.6-3.8,4.1-7.1,4.1C218,199.3,214.9,195.1,214.9,188.8z"/>
	<path class="st2" d="M270.9,200l-2.8-3.3c-1.6,1.6-3.8,2.6-6.3,2.6c-3.6,0-6.1-1.8-6.1-4.8c0-3.2,2.5-4.8,5.2-6.1
		c-0.8-1-2.9-3.1-2.9-5.3c0-2.8,2.3-4.6,5.2-4.6c2.7,0,4.8,2,4.8,4.6c0,2.9-2.5,4.3-5.1,5.6l5.2,6.1c1-1.5,1.6-3.4,1.7-5.5l1.3,0.1
		c-0.2,2.6-1,4.7-2.2,6.4l2.9,3.4L270.9,200z M267.3,195.8l-5.6-6.5c-2.5,1.3-4.7,2.6-4.7,5.2c0,2.3,1.8,3.6,4.7,3.6
		C264,198.1,265.9,197.3,267.3,195.8z M262,187.8c2.5-1.2,4.7-2.4,4.7-4.7c0-2-1.4-3.5-3.5-3.5c-2.2,0-3.8,1.4-3.8,3.5
		C259.3,184.9,261.3,186.9,262,187.8z"/>
	<path class="st2" d="M295.9,178.7h13.3v1.3h-11.9v8.2h10.6v1.3h-10.6v8.3h11.9v1.4h-13.3V178.7z"/>
	<path class="st2" d="M335.5,178.7l-8.1,20.4h-1.2l-8.1-20.4h1.6l7.1,18.4l7.1-18.4H335.5z"/>
	<path class="st2" d="M346.1,178.7h13.3v1.3h-11.9v8.2h10.6v1.3h-10.6v8.3h11.9v1.4h-13.3V178.7z"/>
	<path class="st2" d="M384.3,178.7v20.4h-1.6L372,180.8v18.3h-1.4v-20.4h1.6l10.7,18.3v-18.3H384.3z"/>
	<path class="st2" d="M402.2,179.9h-7.4v-1.3H411v1.3h-7.4v19.2h-1.4V179.9z"/>
	<path class="st2" d="M419.7,193.8l1.4-0.3c0.4,2.9,2.6,4.5,5.5,4.5c3,0,5-1.8,5-4.3c0-5.7-10.7-3.9-10.7-10.2c0-3,2.4-5.1,5.6-5.1
		c2.5,0,4.4,1,5.7,3.2l-1.2,0.7c-1-1.8-2.5-2.6-4.5-2.6c-2.4,0-4.1,1.6-4.1,3.7c0,5.2,10.7,3.4,10.7,10.1c0,3.4-2.8,5.7-6.4,5.7
		C423.1,199.3,420.2,197.3,419.7,193.8z"/>
</g>
<path class="st0" d="M225.9,3.2l10.9,5.3l-4.1,8.5h-13.4L215,8.5L225.9,3.2z"/>
<path class="st0" d="M262.2,141.2c-7.1,0-13.3-1.4-18.8-4.1c-5.5-2.7-10.1-6.6-13.9-11.5c-3.8-4.9-6.7-10.6-8.7-17
	c-2-6.4-2.9-13.3-2.9-20.7c0-7.4,1-14.3,3.1-20.7c2.1-6.4,5.1-12.1,9-17c3.9-4.9,8.6-8.7,14-11.5c5.4-2.7,11.5-4.1,18.2-4.1
	c6.7,0,12.7,1.4,18.2,4.1c5.4,2.7,10.1,6.6,14,11.5c3.9,4.9,6.9,10.6,9,17c2.1,6.4,3.1,13.4,3.1,20.7c0,7.4-1,14.3-2.9,20.7
	c-2,6.4-4.8,12.1-8.7,17c-3.8,4.9-8.4,8.7-13.9,11.5C275.4,139.9,269.2,141.2,262.2,141.2z M262.2,139.7c6,0,10.9-1.5,14.6-4.5
	c3.7-3,6.6-7,8.6-11.9c2-5,3.3-10.5,4.1-16.7c0.7-6.1,1.1-12.3,1.1-18.6c0-6.3-0.4-12.5-1.3-18.6c-0.9-6.1-2.3-11.7-4.4-16.7
	c-2.1-5-5-9-8.7-11.9c-3.7-3-8.3-4.5-14-4.5c-5.7,0-10.4,1.5-14.1,4.5c-3.7,3-6.6,7-8.7,11.9c-2.1,5-3.6,10.5-4.4,16.7
	c-0.9,6.1-1.3,12.3-1.3,18.6c0,6.3,0.4,12.5,1.1,18.6c0.7,6.1,2.1,11.7,4.1,16.7c2,5,4.8,9,8.6,11.9
	C251.2,138.2,256.1,139.7,262.2,139.7z"/>
<g>
	<path class="st2" d="M34,4.8V141H48v2.3H18.4V141h13.3V7.2H17.6V4.8H34z M84.2,145.1L32.9,4.8h17.6l42.6,115.1L133.4,4.8h2.5
		L87,145.1H84.2z M165.7,4.8v2.3h-12.9V141h12.9v2.3h-45.3V141h14.9V4.8H165.7z"/>
	<path class="st2" d="M238.7,145.1c-9.4,0-17.8-1.8-25.1-5.5c-7.3-3.7-13.5-8.8-18.6-15.3c-5.1-6.5-8.9-14.1-11.5-22.7
		c-2.6-8.6-3.9-17.8-3.9-27.6c0-9.8,1.4-19.1,4.2-27.6s6.8-16.1,12-22.7c5.2-6.5,11.4-11.6,18.7-15.3c7.3-3.7,15.4-5.5,24.3-5.5
		c8.9,0,17,1.8,24.2,5.5c7.2,3.7,13.4,8.8,18.6,15.3c5.2,6.5,9.2,14.1,12,22.7c2.8,8.6,4.2,17.8,4.2,27.6c0,9.8-1.3,19.1-3.9,27.6
		c-2.6,8.6-6.5,16.1-11.5,22.7c-5.1,6.5-11.3,11.6-18.6,15.3C256.3,143.3,248,145.1,238.7,145.1z M238.7,143c8,0,14.5-2,19.5-6
		c5-4,8.8-9.3,11.4-15.9c2.6-6.6,4.5-14.1,5.4-22.2c1-8.2,1.5-16.5,1.5-24.8c0-8.4-0.6-16.6-1.7-24.8c-1.1-8.2-3.1-15.6-5.9-22.2
		c-2.8-6.6-6.6-12-11.5-15.9c-4.9-4-11.1-6-18.7-6s-13.8,2-18.7,6c-4.9,4-8.8,9.3-11.6,15.9c-2.8,6.6-4.8,14.1-5.9,22.2
		c-1.1,8.2-1.7,16.5-1.7,24.8c0,8.4,0.5,16.6,1.5,24.8c1,8.2,2.8,15.6,5.4,22.2c2.6,6.6,6.5,12,11.4,15.9
		C224.1,141,230.6,143,238.7,143z"/>
	<path class="st2" d="M311.6,143.3V141h20.2V7.2h-20.2V4.8h60v2.3h-22.2V141h22.2v2.3H311.6z"/>
	<path class="st2" d="M431.9,146c-8.1,0-15-1.3-20.8-3.8c-5.7-2.5-10.5-5.9-14.2-10.2l-9.2,13.2h-1.9v-37.9h2.2
		c1,5.2,2.6,10.1,4.8,14.5c2.2,4.4,5,8.3,8.4,11.5c3.4,3.3,7.6,5.8,12.4,7.6c4.8,1.8,10.4,2.7,16.8,2.7c6.5,0,12.2-1.1,17-3.4
		c4.8-2.3,8.6-5.6,11.2-10c2.6-4.4,4-9.7,4-16.1c0-5.4-1.3-10-4-13.7c-2.7-3.7-6.2-7-10.6-9.7c-4.4-2.8-9.2-5.3-14.5-7.7
		c-5.3-2.3-10.5-4.8-15.8-7.3c-5.3-2.6-10.1-5.5-14.5-8.9c-4.4-3.4-7.9-7.5-10.6-12.2c-2.7-4.8-4.1-10.6-4.1-17.4
		c0-6.8,1.7-12.7,5.2-17.9c3.5-5.1,8.1-9.1,13.9-12c5.8-2.9,12.2-4.3,19.2-4.3c6.2,0,11.8,1,16.8,2.9c5.1,1.9,9.5,4.9,13.2,9
		L465.9,3h1.9v37.9h-2.2c-1.2-8.1-3.6-14.7-7-19.9c-3.4-5.2-7.7-9.1-12.8-11.6c-5.1-2.5-10.9-3.8-17.3-3.8c-8.8,0-15.5,2.1-20,6.4
		c-4.6,4.3-6.8,9.9-6.8,16.9c0,4.9,1.3,9,3.9,12.4c2.6,3.4,6.1,6.4,10.4,9c4.3,2.6,9,5,14.2,7.3c5.2,2.3,10.4,4.8,15.6,7.5
		c5.2,2.7,10,5.8,14.3,9.5c4.3,3.6,7.8,8,10.4,13.1c2.6,5.1,3.9,11.3,3.9,18.6c0,8-1.7,15-5.2,20.9c-3.4,5.9-8.3,10.5-14.7,13.8
		C448.1,144.3,440.6,146,431.9,146z"/>
</g>
</svg>
